<mxfile host="app.diagrams.net" modified="2022-04-29T09:07:56.651Z" agent="5.0 (Macintosh; Intel Mac OS X 10_15_7) AppleWebKit/537.36 (KHTML, like Gecko) Chrome/92.0.4515.159 Safari/537.36" etag="Cvtq-SJWTVM_YlTxXE8G" version="17.4.6" type="github">
  <diagram name="Page-1" id="13e1069c-82ec-6db2-03f1-153e76fe0fe0">
    <mxGraphModel dx="1426" dy="712" grid="1" gridSize="10" guides="1" tooltips="1" connect="1" arrows="1" fold="1" page="1" pageScale="1" pageWidth="1100" pageHeight="850" background="none" math="0" shadow="0">
      <root>
        <mxCell id="0" />
        <mxCell id="1" parent="0" />
        <mxCell id="7baba1c4bc27f4b0-2" value="后端" style="shape=umlLifeline;perimeter=lifelinePerimeter;whiteSpace=wrap;html=1;container=1;collapsible=0;recursiveResize=0;outlineConnect=0;rounded=1;shadow=0;comic=0;labelBackgroundColor=none;strokeWidth=1;fontFamily=Verdana;fontSize=12;align=center;" parent="1" vertex="1">
          <mxGeometry x="500" y="80" width="100" height="580" as="geometry" />
        </mxCell>
        <mxCell id="7baba1c4bc27f4b0-10" value="" style="html=1;points=[];perimeter=orthogonalPerimeter;rounded=0;shadow=0;comic=0;labelBackgroundColor=none;strokeWidth=1;fontFamily=Verdana;fontSize=12;align=center;" parent="7baba1c4bc27f4b0-2" vertex="1">
          <mxGeometry x="45" y="100" width="10" height="140" as="geometry" />
        </mxCell>
        <mxCell id="Oz3b0MvVI2F1H4eGhW3b-20" value="" style="html=1;points=[];perimeter=orthogonalPerimeter;rounded=0;shadow=0;comic=0;labelBackgroundColor=none;strokeWidth=1;fontFamily=Verdana;fontSize=12;align=center;" vertex="1" parent="7baba1c4bc27f4b0-2">
          <mxGeometry x="45" y="320" width="10" height="120" as="geometry" />
        </mxCell>
        <mxCell id="Oz3b0MvVI2F1H4eGhW3b-28" value="编辑试卷内容成功" style="html=1;verticalAlign=bottom;endArrow=open;dashed=1;endSize=8;labelBackgroundColor=none;fontFamily=Verdana;fontSize=12;edgeStyle=elbowEdgeStyle;elbow=vertical;exitX=0.6;exitY=0.975;exitDx=0;exitDy=0;exitPerimeter=0;entryX=1.2;entryY=0.94;entryDx=0;entryDy=0;entryPerimeter=0;" edge="1" parent="7baba1c4bc27f4b0-2">
          <mxGeometry relative="1" as="geometry">
            <mxPoint x="-184" y="440" as="targetPoint" />
            <Array as="points">
              <mxPoint x="-1" y="440" />
            </Array>
            <mxPoint x="45" y="439" as="sourcePoint" />
          </mxGeometry>
        </mxCell>
        <mxCell id="7baba1c4bc27f4b0-3" value="Redis" style="shape=umlLifeline;perimeter=lifelinePerimeter;whiteSpace=wrap;html=1;container=1;collapsible=0;recursiveResize=0;outlineConnect=0;rounded=1;shadow=0;comic=0;labelBackgroundColor=none;strokeWidth=1;fontFamily=Verdana;fontSize=12;align=center;" parent="1" vertex="1">
          <mxGeometry x="740" y="80" width="100" height="580" as="geometry" />
        </mxCell>
        <mxCell id="7baba1c4bc27f4b0-13" value="" style="html=1;points=[];perimeter=orthogonalPerimeter;rounded=0;shadow=0;comic=0;labelBackgroundColor=none;strokeWidth=1;fontFamily=Verdana;fontSize=12;align=center;" parent="7baba1c4bc27f4b0-3" vertex="1">
          <mxGeometry x="45" y="130" width="10" height="20" as="geometry" />
        </mxCell>
        <mxCell id="Oz3b0MvVI2F1H4eGhW3b-9" value="" style="html=1;points=[];perimeter=orthogonalPerimeter;" vertex="1" parent="7baba1c4bc27f4b0-3">
          <mxGeometry x="45" y="170" width="10" height="40" as="geometry" />
        </mxCell>
        <mxCell id="Oz3b0MvVI2F1H4eGhW3b-10" value="redis底层操作" style="edgeStyle=orthogonalEdgeStyle;html=1;align=left;spacingLeft=2;endArrow=block;rounded=0;entryX=1;entryY=0;" edge="1" target="Oz3b0MvVI2F1H4eGhW3b-9" parent="7baba1c4bc27f4b0-3">
          <mxGeometry relative="1" as="geometry">
            <mxPoint x="50" y="150" as="sourcePoint" />
            <Array as="points">
              <mxPoint x="80" y="150" />
            </Array>
          </mxGeometry>
        </mxCell>
        <mxCell id="Oz3b0MvVI2F1H4eGhW3b-23" value="" style="html=1;points=[];perimeter=orthogonalPerimeter;rounded=0;shadow=0;comic=0;labelBackgroundColor=none;strokeWidth=1;fontFamily=Verdana;fontSize=12;align=center;" vertex="1" parent="7baba1c4bc27f4b0-3">
          <mxGeometry x="45" y="330" width="10" height="30" as="geometry" />
        </mxCell>
        <mxCell id="Oz3b0MvVI2F1H4eGhW3b-24" value="&lt;span&gt;1.更新sorted set中试卷id的score为当前时间&lt;/span&gt;&lt;br&gt;&lt;span&gt;2.hash中更新试卷元信息中的更新时间&lt;/span&gt;&lt;br&gt;&lt;span&gt;3.hash中更新试卷内容&lt;/span&gt;" style="html=1;verticalAlign=bottom;endArrow=block;labelBackgroundColor=none;fontFamily=Verdana;fontSize=12;edgeStyle=elbowEdgeStyle;elbow=vertical;exitX=1;exitY=0.067;exitDx=0;exitDy=0;exitPerimeter=0;align=left;" edge="1" parent="7baba1c4bc27f4b0-3">
          <mxGeometry x="-0.8653" relative="1" as="geometry">
            <mxPoint x="-185.5" y="330.04999999999995" as="sourcePoint" />
            <mxPoint x="45" y="330.27" as="targetPoint" />
            <mxPoint as="offset" />
          </mxGeometry>
        </mxCell>
        <mxCell id="Oz3b0MvVI2F1H4eGhW3b-25" value="" style="html=1;points=[];perimeter=orthogonalPerimeter;" vertex="1" parent="7baba1c4bc27f4b0-3">
          <mxGeometry x="45" y="380" width="10" height="40" as="geometry" />
        </mxCell>
        <mxCell id="Oz3b0MvVI2F1H4eGhW3b-26" value="redis底层操作" style="edgeStyle=orthogonalEdgeStyle;html=1;align=left;spacingLeft=2;endArrow=block;rounded=0;entryX=1;entryY=0;" edge="1" parent="7baba1c4bc27f4b0-3" target="Oz3b0MvVI2F1H4eGhW3b-25">
          <mxGeometry relative="1" as="geometry">
            <mxPoint x="50" y="360" as="sourcePoint" />
            <Array as="points">
              <mxPoint x="80" y="360" />
            </Array>
          </mxGeometry>
        </mxCell>
        <mxCell id="7baba1c4bc27f4b0-8" value="前端" style="shape=umlLifeline;perimeter=lifelinePerimeter;whiteSpace=wrap;html=1;container=1;collapsible=0;recursiveResize=0;outlineConnect=0;rounded=1;shadow=0;comic=0;labelBackgroundColor=none;strokeWidth=1;fontFamily=Verdana;fontSize=12;align=center;" parent="1" vertex="1">
          <mxGeometry x="260" y="80" width="100" height="580" as="geometry" />
        </mxCell>
        <mxCell id="7baba1c4bc27f4b0-9" value="" style="html=1;points=[];perimeter=orthogonalPerimeter;rounded=0;shadow=0;comic=0;labelBackgroundColor=none;strokeWidth=1;fontFamily=Verdana;fontSize=12;align=center;" parent="7baba1c4bc27f4b0-8" vertex="1">
          <mxGeometry x="45" y="100" width="10" height="150" as="geometry" />
        </mxCell>
        <mxCell id="Oz3b0MvVI2F1H4eGhW3b-17" value="" style="html=1;points=[];perimeter=orthogonalPerimeter;rounded=0;shadow=0;comic=0;labelBackgroundColor=none;strokeWidth=1;fontFamily=Verdana;fontSize=12;align=center;" vertex="1" parent="7baba1c4bc27f4b0-8">
          <mxGeometry x="45" y="310" width="10" height="150" as="geometry" />
        </mxCell>
        <mxCell id="Oz3b0MvVI2F1H4eGhW3b-19" value="编辑试卷内容" style="html=1;verticalAlign=bottom;endArrow=block;labelBackgroundColor=none;fontFamily=Verdana;fontSize=12;edgeStyle=elbowEdgeStyle;elbow=vertical;exitX=0.9;exitY=0.069;exitDx=0;exitDy=0;exitPerimeter=0;" edge="1" parent="7baba1c4bc27f4b0-8">
          <mxGeometry relative="1" as="geometry">
            <mxPoint x="-170.5" y="310" as="sourcePoint" />
            <mxPoint x="45" y="310.27" as="targetPoint" />
          </mxGeometry>
        </mxCell>
        <mxCell id="7baba1c4bc27f4b0-11" value="新增试卷/更新试卷元信息" style="html=1;verticalAlign=bottom;endArrow=block;entryX=0.1;entryY=0.143;labelBackgroundColor=none;fontFamily=Verdana;fontSize=12;edgeStyle=elbowEdgeStyle;elbow=vertical;entryDx=0;entryDy=0;entryPerimeter=0;" parent="1" source="7baba1c4bc27f4b0-9" target="7baba1c4bc27f4b0-10" edge="1">
          <mxGeometry relative="1" as="geometry">
            <mxPoint x="360" y="190" as="sourcePoint" />
          </mxGeometry>
        </mxCell>
        <mxCell id="7baba1c4bc27f4b0-14" value="1.不同维度的sorted set新增试卷id/更新score&lt;br&gt;2.hash中新增/更新试卷元信息&lt;br&gt;3.hash中新增/更新试卷空内容" style="html=1;verticalAlign=bottom;endArrow=block;labelBackgroundColor=none;fontFamily=Verdana;fontSize=12;edgeStyle=elbowEdgeStyle;elbow=vertical;entryX=0.5;entryY=0;entryDx=0;entryDy=0;entryPerimeter=0;align=left;" parent="1" source="7baba1c4bc27f4b0-10" target="7baba1c4bc27f4b0-13" edge="1">
          <mxGeometry x="-0.7826" relative="1" as="geometry">
            <mxPoint x="510" y="200" as="sourcePoint" />
            <mxPoint x="580" y="210" as="targetPoint" />
            <mxPoint as="offset" />
          </mxGeometry>
        </mxCell>
        <mxCell id="Oz3b0MvVI2F1H4eGhW3b-2" value="" style="shape=umlLifeline;participant=umlActor;perimeter=lifelinePerimeter;whiteSpace=wrap;html=1;container=1;collapsible=0;recursiveResize=0;verticalAlign=top;spacingTop=36;outlineConnect=0;" vertex="1" parent="1">
          <mxGeometry x="80" y="80" width="20" height="580" as="geometry" />
        </mxCell>
        <mxCell id="Oz3b0MvVI2F1H4eGhW3b-6" value="" style="html=1;points=[];perimeter=orthogonalPerimeter;" vertex="1" parent="Oz3b0MvVI2F1H4eGhW3b-2">
          <mxGeometry x="5" y="90" width="10" height="170" as="geometry" />
        </mxCell>
        <mxCell id="Oz3b0MvVI2F1H4eGhW3b-15" value="" style="html=1;points=[];perimeter=orthogonalPerimeter;" vertex="1" parent="Oz3b0MvVI2F1H4eGhW3b-2">
          <mxGeometry x="5" y="300" width="10" height="170" as="geometry" />
        </mxCell>
        <mxCell id="Oz3b0MvVI2F1H4eGhW3b-3" value="老师" style="text;html=1;strokeColor=none;fillColor=none;align=center;verticalAlign=middle;whiteSpace=wrap;rounded=0;" vertex="1" parent="1">
          <mxGeometry x="60" y="40" width="60" height="30" as="geometry" />
        </mxCell>
        <mxCell id="Oz3b0MvVI2F1H4eGhW3b-5" value="填写试卷元信息" style="html=1;verticalAlign=bottom;endArrow=block;labelBackgroundColor=none;fontFamily=Verdana;fontSize=12;edgeStyle=elbowEdgeStyle;elbow=vertical;exitX=0.9;exitY=0.069;exitDx=0;exitDy=0;exitPerimeter=0;" edge="1" parent="1" source="Oz3b0MvVI2F1H4eGhW3b-6" target="7baba1c4bc27f4b0-8">
          <mxGeometry relative="1" as="geometry">
            <mxPoint x="170" y="180" as="sourcePoint" />
            <mxPoint x="290" y="180" as="targetPoint" />
          </mxGeometry>
        </mxCell>
        <mxCell id="Oz3b0MvVI2F1H4eGhW3b-11" value="存储成功" style="html=1;verticalAlign=bottom;endArrow=open;dashed=1;endSize=8;labelBackgroundColor=none;fontFamily=Verdana;fontSize=12;edgeStyle=elbowEdgeStyle;elbow=vertical;exitX=0.6;exitY=0.975;exitDx=0;exitDy=0;exitPerimeter=0;" edge="1" parent="1" source="Oz3b0MvVI2F1H4eGhW3b-9" target="7baba1c4bc27f4b0-10">
          <mxGeometry relative="1" as="geometry">
            <mxPoint x="560" y="290" as="targetPoint" />
            <Array as="points">
              <mxPoint x="745" y="290" />
            </Array>
            <mxPoint x="785" y="290" as="sourcePoint" />
          </mxGeometry>
        </mxCell>
        <mxCell id="Oz3b0MvVI2F1H4eGhW3b-13" value="新增/更新成功" style="html=1;verticalAlign=bottom;endArrow=open;dashed=1;endSize=8;labelBackgroundColor=none;fontFamily=Verdana;fontSize=12;edgeStyle=elbowEdgeStyle;elbow=vertical;exitX=0.6;exitY=0.975;exitDx=0;exitDy=0;exitPerimeter=0;entryX=1.2;entryY=0.94;entryDx=0;entryDy=0;entryPerimeter=0;" edge="1" parent="1" target="7baba1c4bc27f4b0-9">
          <mxGeometry relative="1" as="geometry">
            <mxPoint x="320" y="321" as="targetPoint" />
            <Array as="points">
              <mxPoint x="500" y="321" />
            </Array>
            <mxPoint x="546" y="320" as="sourcePoint" />
          </mxGeometry>
        </mxCell>
        <mxCell id="Oz3b0MvVI2F1H4eGhW3b-14" value="新增/更新成功" style="html=1;verticalAlign=bottom;endArrow=open;dashed=1;endSize=8;labelBackgroundColor=none;fontFamily=Verdana;fontSize=12;edgeStyle=elbowEdgeStyle;elbow=horizontal;exitX=0.6;exitY=0.975;exitDx=0;exitDy=0;exitPerimeter=0;entryX=0.9;entryY=0.947;entryDx=0;entryDy=0;entryPerimeter=0;" edge="1" parent="1" target="Oz3b0MvVI2F1H4eGhW3b-6">
          <mxGeometry relative="1" as="geometry">
            <mxPoint x="100" y="331" as="targetPoint" />
            <Array as="points">
              <mxPoint x="260" y="331" />
            </Array>
            <mxPoint x="306" y="330" as="sourcePoint" />
          </mxGeometry>
        </mxCell>
        <mxCell id="Oz3b0MvVI2F1H4eGhW3b-21" value="提交试卷内容" style="html=1;verticalAlign=bottom;endArrow=block;labelBackgroundColor=none;fontFamily=Verdana;fontSize=12;edgeStyle=elbowEdgeStyle;elbow=vertical;exitX=1;exitY=0.067;exitDx=0;exitDy=0;exitPerimeter=0;" edge="1" parent="1" source="Oz3b0MvVI2F1H4eGhW3b-17">
          <mxGeometry relative="1" as="geometry">
            <mxPoint x="320" y="400" as="sourcePoint" />
            <mxPoint x="545.5" y="400.27" as="targetPoint" />
          </mxGeometry>
        </mxCell>
        <mxCell id="Oz3b0MvVI2F1H4eGhW3b-27" value="存储成功" style="html=1;verticalAlign=bottom;endArrow=open;dashed=1;endSize=8;labelBackgroundColor=none;fontFamily=Verdana;fontSize=12;edgeStyle=elbowEdgeStyle;elbow=vertical;exitX=0.6;exitY=0.975;exitDx=0;exitDy=0;exitPerimeter=0;entryX=0.9;entryY=0.842;entryDx=0;entryDy=0;entryPerimeter=0;" edge="1" parent="1" target="Oz3b0MvVI2F1H4eGhW3b-20">
          <mxGeometry relative="1" as="geometry">
            <mxPoint x="560" y="501" as="targetPoint" />
            <Array as="points">
              <mxPoint x="740" y="501" />
            </Array>
            <mxPoint x="786" y="500" as="sourcePoint" />
          </mxGeometry>
        </mxCell>
        <mxCell id="Oz3b0MvVI2F1H4eGhW3b-29" value="编辑试卷内容成功" style="html=1;verticalAlign=bottom;endArrow=open;dashed=1;endSize=8;labelBackgroundColor=none;fontFamily=Verdana;fontSize=12;edgeStyle=elbowEdgeStyle;elbow=vertical;" edge="1" parent="1" source="7baba1c4bc27f4b0-8" target="Oz3b0MvVI2F1H4eGhW3b-2">
          <mxGeometry relative="1" as="geometry">
            <mxPoint x="150" y="540" as="targetPoint" />
            <Array as="points">
              <mxPoint x="120" y="541" />
              <mxPoint x="300" y="541" />
            </Array>
            <mxPoint x="289" y="540" as="sourcePoint" />
          </mxGeometry>
        </mxCell>
      </root>
    </mxGraphModel>
  </diagram>
</mxfile>
